<svg xmlns:dc="http://purl.org/dc/elements/1.1/" xmlns:cc="http://creativecommons.org/ns#" xmlns:rdf="http://www.w3.org/1999/02/22-rdf-syntax-ns#" xmlns:svg="http://www.w3.org/2000/svg" xmlns="http://www.w3.org/2000/svg" xmlns:sodipodi="http://sodipodi.sourceforge.net/DTD/sodipodi-0.dtd" xmlns:inkscape="http://www.inkscape.org/namespaces/inkscape" viewBox="0 0 24 30" version="1.1" x="0px" y="0px"><g transform="translate(0,-1028.3622)"><path d="m 7.00586,1031.3622 c -2.26693,0 -4.12432,1.8645 -4.13086,4.1386 l 0,1.8614 -2.375,0 0,12 13,0 0,-5 3.16602,0 c 0.43652,1.4362 1.7624,2.5 3.33398,2.5 1.9211,0 3.49995,-1.5789 3.5,-3.5 3e-5,-1.9212 -1.57885,-3.5 -3.5,-3.5 -1.57197,0 -2.89781,1.0632 -3.33398,2.5 l -3.16602,0 0,-5 c -0.79167,0 -1.58333,0 -2.375,0 l 0,-1.8458 c 0.002,-2.2743 -1.84782,-4.1542 -4.11914,-4.1542 z m 0,2 c 1.178,0 2.12011,0.9497 2.11914,2.1523 l 0,1.8477 -4.25,0 0,-1.8575 c 0.004,-1.2019 0.94907,-2.1425 2.13086,-2.1425 z m -4.50586,6 9,0 0,3 -3,0 -2,0 c 0,1 0,2 0,3 l 2,0 0,-1 3,0 0,3 -9,0 z m 17.5,2.5 c 0.84026,0 1.50001,0.6597 1.5,1.5 -2e-5,0.8402 -0.65977,1.5 -1.5,1.5 -0.84023,0 -1.49998,-0.6598 -1.5,-1.5 -10e-6,-0.8403 0.65974,-1.5 1.5,-1.5 z" style="color:#000000;font-style:normal;font-variant:normal;font-weight:normal;font-stretch:normal;font-size:medium;line-height:normal;font-family:sans-serif;text-indent:0;text-align:start;text-decoration:none;text-decoration-line:none;text-decoration-style:solid;text-decoration-color:#000000;letter-spacing:normal;word-spacing:normal;text-transform:none;direction:ltr;block-progression:tb;writing-mode:lr-tb;baseline-shift:baseline;text-anchor:start;white-space:normal;clip-rule:nonzero;display:inline;overflow:visible;visibility:visible;opacity:1;isolation:auto;mix-blend-mode:normal;color-interpolation:sRGB;color-interpolation-filters:linearRGB;solid-color:#000000;solid-opacity:1;fill:#000000;fill-opacity:1;fill-rule:nonzero;stroke:none;stroke-width:2;stroke-linecap:butt;stroke-linejoin:miter;stroke-miterlimit:4;stroke-dasharray:none;stroke-dashoffset:0;stroke-opacity:1;color-rendering:auto;image-rendering:auto;shape-rendering:auto;text-rendering:auto;enable-background:accumulate"/></g></svg>