<svg xmlns="http://www.w3.org/2000/svg" xmlns:xlink="http://www.w3.org/1999/xlink" xml:space="preserve" version="1.1" style="shape-rendering:geometricPrecision;text-rendering:geometricPrecision;image-rendering:optimizeQuality;" viewBox="0 0 200050 250062.5" x="0px" y="0px" fill-rule="evenodd" clip-rule="evenodd"><defs><style type="text/css">
   
    .fil0 {fill:#1A1A1A;fill-rule:nonzero}
   
  </style></defs><g><path class="fil0" d="M3665 0l192720 0 3665 0 0 3665 0 192720 0 3665 -3665 0 -192720 0 -3665 0 0 -3665 0 -192720 0 -3665 3665 0zm26681 25164l69679 69679 69679 -69679 5182 5182 -69679 69679 69679 69679 -5182 5182 -69679 -69679 -69679 69679 -5182 -5182 69679 -69679 -69679 -69679 5182 -5182zm162374 -17834l-185390 0 0 185390 185390 0 0 -185390z"/></g><text x="0" y="200065" fill="#000000" font-size="5px" font-weight="bold" font-family="'Helvetica Neue', Helvetica, Arial-Unicode, Arial, Sans-serif">Created by Dmitry Mamaev</text><text x="0" y="200070" fill="#000000" font-size="5px" font-weight="bold" font-family="'Helvetica Neue', Helvetica, Arial-Unicode, Arial, Sans-serif">from the Noun Project</text></svg>